<svg xmlns="http://www.w3.org/2000/svg" viewBox="0 0 24 24" fill="#F38020"><path d="M16.509 16.516c.21-.758.12-1.455-.247-1.903-.34-.414-.893-.643-1.558-.667l-8.677-.112a.267.267 0 0 1-.22-.122.316.316 0 0 1-.039-.254c.06-.212.27-.364.497-.376l8.756-.112c1.665-.076 3.47-1.427 4.065-3.044l.754-2.058a.54.54 0 0 0 .025-.259A7.326 7.326 0 0 0 5.41 8.87a4.52 4.52 0 0 0-3.16 1.3A4.188 4.188 0 0 0 .95 12.964a.313.313 0 0 0 .083.264.284.284 0 0 0 .245.078l1.893-.024c.203-.012.398-.146.455-.318.203-.611.795-1.058 1.48-1.058.665 0 1.24.42 1.459 1.004.065.171.234.296.426.296h.776c.266 0 .48.22.457.487a3.3 3.3 0 0 0 .027.735.308.308 0 0 0 .303.259l8.055.103c.227.003.437.182.489.401l.177.717a.294.294 0 0 0 .29.223h2.08c.178 0 .316-.144.295-.323a4.174 4.174 0 0 0-.23-.876z"/><path d="M19.35 8.82l-.412.003a.295.295 0 0 0-.276.212l-.534 1.835c-.21.758-.12 1.455.247 1.903.34.414.894.643 1.559.667l1.762.112c.179.012.326.113.381.27.055.156.008.326-.124.432-.232.183-.534.282-.851.282h-1.81a.284.284 0 0 0-.245.141.316.316 0 0 0-.012.285l.312.754c.064.152.217.254.385.254h1.566c.984 0 1.94-.389 2.623-1.069a3.646 3.646 0 0 0 1.079-2.592A3.647 3.647 0 0 0 19.35 8.82z" fill="#FAAE40"/></svg>
