<svg xmlns="http://www.w3.org/2000/svg" viewBox="0 0 24 24" fill="#635BFF"><path d="M13.976 9.15c-2.172-.806-3.356-1.426-3.356-2.409 0-.831.683-1.305 1.901-1.305 2.227 0 4.515.858 6.09 1.631l.89-5.494C18.252.975 15.697 0 12.165 0 9.667 0 7.589.654 6.104 1.872 4.56 3.147 3.757 4.918 3.757 7.038c0 4.072 2.484 5.857 6.334 7.29 2.467.92 3.28 1.573 3.28 2.548 0 .93-.784 1.47-2.147 1.47-1.86 0-4.86-.89-6.878-2.063l-.888 5.534C5.224 22.93 8.028 24 11.53 24c2.594 0 4.717-.644 6.219-1.852 1.648-1.318 2.494-3.204 2.494-5.611-.007-4.144-2.525-5.896-6.267-7.387z"/></svg>
